<svg xmlns="http://www.w3.org/2000/svg" width="900" height="600">
  <rect width="100%" height="100%" fill="#ffffff"/>
  <line x1="60" y1="540" x2="840" y2="540" stroke="#333" stroke-width="2"/>
  <line x1="60" y1="60" x2="60" y2="540" stroke="#333" stroke-width="2"/>
  <text x="450" y="32" text-anchor="middle" font-size="24" fill="#222">Scatter Plot (Generated Data)</text>
  <text x="450" y="584" text-anchor="middle" font-size="16" fill="#444">X</text>
  <text x="22" y="300" text-anchor="middle" font-size="16" fill="#444" transform="rotate(-90 22 300)">Y</text>
  <circle cx="558.75" cy="198.20" r="4" fill="#4682B4" fill-opacity="0.78" /><circle cx="234.10" cy="396.69" r="4" fill="#4682B4" fill-opacity="0.78" /><circle cx="634.45" cy="215.69" r="4" fill="#4682B4" fill-opacity="0.78" /><circle cx="127.81" cy="522.49" r="4" fill="#4682B4" fill-opacity="0.78" /><circle cx="389.10" cy="293.59" r="4" fill="#4682B4" fill-opacity="0.78" /><circle cx="454.18" cy="277.24" r="4" fill="#4682B4" fill-opacity="0.78" /><circle cx="80.70" cy="468.60" r="4" fill="#4682B4" fill-opacity="0.78" /><circle cx="485.05" cy="218.44" r="4" fill="#4682B4" fill-opacity="0.78" /><circle cx="231.94" cy="454.25" r="4" fill="#4682B4" fill-opacity="0.78" /><circle cx="65.07" cy="525.31" r="4" fill="#4682B4" fill-opacity="0.78" /><circle cx="688.54" cy="164.52" r="4" fill="#4682B4" fill-opacity="0.78" /><circle cx="181.27" cy="458.79" r="4" fill="#4682B4" fill-opacity="0.78" /><circle cx="806.63" cy="98.37" r="4" fill="#4682B4" fill-opacity="0.78" /><circle cx="135.44" cy="441.65" r="4" fill="#4682B4" fill-opacity="0.78" /><circle cx="721.05" cy="185.81" r="4" fill="#4682B4" fill-opacity="0.78" /><circle cx="629.19" cy="224.03" r="4" fill="#4682B4" fill-opacity="0.78" /><circle cx="478.26" cy="236.10" r="4" fill="#4682B4" fill-opacity="0.78" /><circle cx="490.59" cy="267.47" r="4" fill="#4682B4" fill-opacity="0.78" /><circle cx="706.94" cy="194.14" r="4" fill="#4682B4" fill-opacity="0.78" /><circle cx="510.33" cy="296.82" r="4" fill="#4682B4" fill-opacity="0.78" /><circle cx="609.57" cy="174.12" r="4" fill="#4682B4" fill-opacity="0.78" /><circle cx="285.72" cy="366.05" r="4" fill="#4682B4" fill-opacity="0.78" /><circle cx="122.24" cy="459.88" r="4" fill="#4682B4" fill-opacity="0.78" /><circle cx="276.82" cy="362.27" r="4" fill="#4682B4" fill-opacity="0.78" /><circle cx="555.83" cy="248.05" r="4" fill="#4682B4" fill-opacity="0.78" /><circle cx="223.42" cy="382.31" r="4" fill="#4682B4" fill-opacity="0.78" /><circle cx="268.24" cy="337.38" r="4" fill="#4682B4" fill-opacity="0.78" /><circle cx="535.12" cy="256.74" r="4" fill="#4682B4" fill-opacity="0.78" /><circle cx="193.49" cy="425.59" r="4" fill="#4682B4" fill-opacity="0.78" /><circle cx="355.98" cy="354.91" r="4" fill="#4682B4" fill-opacity="0.78" /><circle cx="831.83" cy="104.49" r="4" fill="#4682B4" fill-opacity="0.78" /><circle cx="594.00" cy="239.13" r="4" fill="#4682B4" fill-opacity="0.78" /><circle cx="717.42" cy="135.02" r="4" fill="#4682B4" fill-opacity="0.78" /><circle cx="85.04" cy="505.80" r="4" fill="#4682B4" fill-opacity="0.78" /><circle cx="306.05" cy="364.53" r="4" fill="#4682B4" fill-opacity="0.78" /><circle cx="795.47" cy="73.55" r="4" fill="#4682B4" fill-opacity="0.78" /><circle cx="743.57" cy="144.34" r="4" fill="#4682B4" fill-opacity="0.78" /><circle cx="368.59" cy="282.70" r="4" fill="#4682B4" fill-opacity="0.78" /><circle cx="773.35" cy="134.33" r="4" fill="#4682B4" fill-opacity="0.78" /><circle cx="252.37" cy="384.25" r="4" fill="#4682B4" fill-opacity="0.78" /><circle cx="497.87" cy="261.57" r="4" fill="#4682B4" fill-opacity="0.78" /><circle cx="760.30" cy="71.07" r="4" fill="#4682B4" fill-opacity="0.78" /><circle cx="371.53" cy="304.00" r="4" fill="#4682B4" fill-opacity="0.78" /><circle cx="457.43" cy="164.85" r="4" fill="#4682B4" fill-opacity="0.78" /><circle cx="130.91" cy="441.28" r="4" fill="#4682B4" fill-opacity="0.78" /><circle cx="549.41" cy="225.30" r="4" fill="#4682B4" fill-opacity="0.78" /><circle cx="677.82" cy="171.27" r="4" fill="#4682B4" fill-opacity="0.78" /><circle cx="357.66" cy="328.21" r="4" fill="#4682B4" fill-opacity="0.78" /><circle cx="836.97" cy="162.72" r="4" fill="#4682B4" fill-opacity="0.78" /><circle cx="731.41" cy="147.79" r="4" fill="#4682B4" fill-opacity="0.78" /><circle cx="68.96" cy="499.81" r="4" fill="#4682B4" fill-opacity="0.78" /><circle cx="478.84" cy="318.61" r="4" fill="#4682B4" fill-opacity="0.78" /><circle cx="268.12" cy="392.91" r="4" fill="#4682B4" fill-opacity="0.78" /><circle cx="399.12" cy="324.24" r="4" fill="#4682B4" fill-opacity="0.78" /><circle cx="413.90" cy="237.30" r="4" fill="#4682B4" fill-opacity="0.78" /><circle cx="265.44" cy="403.72" r="4" fill="#4682B4" fill-opacity="0.78" /><circle cx="450.46" cy="251.31" r="4" fill="#4682B4" fill-opacity="0.78" /><circle cx="739.00" cy="60.00" r="4" fill="#4682B4" fill-opacity="0.78" /><circle cx="292.79" cy="398.91" r="4" fill="#4682B4" fill-opacity="0.78" /><circle cx="179.21" cy="466.20" r="4" fill="#4682B4" fill-opacity="0.78" /><circle cx="654.76" cy="229.90" r="4" fill="#4682B4" fill-opacity="0.78" /><circle cx="473.68" cy="285.48" r="4" fill="#4682B4" fill-opacity="0.78" /><circle cx="60.45" cy="498.07" r="4" fill="#4682B4" fill-opacity="0.78" /><circle cx="784.70" cy="96.54" r="4" fill="#4682B4" fill-opacity="0.78" /><circle cx="745.40" cy="109.59" r="4" fill="#4682B4" fill-opacity="0.78" /><circle cx="105.18" cy="496.07" r="4" fill="#4682B4" fill-opacity="0.78" /><circle cx="744.85" cy="110.60" r="4" fill="#4682B4" fill-opacity="0.78" /><circle cx="439.07" cy="294.53" r="4" fill="#4682B4" fill-opacity="0.78" /><circle cx="113.99" cy="462.20" r="4" fill="#4682B4" fill-opacity="0.78" /><circle cx="160.15" cy="498.52" r="4" fill="#4682B4" fill-opacity="0.78" /><circle cx="430.72" cy="319.63" r="4" fill="#4682B4" fill-opacity="0.78" /><circle cx="740.50" cy="134.66" r="4" fill="#4682B4" fill-opacity="0.78" /><circle cx="390.05" cy="306.41" r="4" fill="#4682B4" fill-opacity="0.78" /><circle cx="629.35" cy="145.83" r="4" fill="#4682B4" fill-opacity="0.78" /><circle cx="216.90" cy="452.01" r="4" fill="#4682B4" fill-opacity="0.78" /><circle cx="566.90" cy="118.36" r="4" fill="#4682B4" fill-opacity="0.78" /><circle cx="401.72" cy="327.17" r="4" fill="#4682B4" fill-opacity="0.78" /><circle cx="235.26" cy="402.20" r="4" fill="#4682B4" fill-opacity="0.78" /><circle cx="323.71" cy="373.16" r="4" fill="#4682B4" fill-opacity="0.78" /><circle cx="231.77" cy="415.09" r="4" fill="#4682B4" fill-opacity="0.78" /><circle cx="115.37" cy="481.86" r="4" fill="#4682B4" fill-opacity="0.78" /><circle cx="766.23" cy="130.43" r="4" fill="#4682B4" fill-opacity="0.78" /><circle cx="730.52" cy="109.39" r="4" fill="#4682B4" fill-opacity="0.78" /><circle cx="581.80" cy="201.75" r="4" fill="#4682B4" fill-opacity="0.78" /><circle cx="227.10" cy="351.37" r="4" fill="#4682B4" fill-opacity="0.78" /><circle cx="505.41" cy="195.39" r="4" fill="#4682B4" fill-opacity="0.78" /><circle cx="428.68" cy="282.23" r="4" fill="#4682B4" fill-opacity="0.78" /><circle cx="208.52" cy="474.75" r="4" fill="#4682B4" fill-opacity="0.78" /><circle cx="135.61" cy="486.54" r="4" fill="#4682B4" fill-opacity="0.78" /><circle cx="424.28" cy="282.96" r="4" fill="#4682B4" fill-opacity="0.78" /><circle cx="628.68" cy="232.19" r="4" fill="#4682B4" fill-opacity="0.78" /><circle cx="136.77" cy="540.00" r="4" fill="#4682B4" fill-opacity="0.78" /><circle cx="374.04" cy="360.89" r="4" fill="#4682B4" fill-opacity="0.78" /><circle cx="253.95" cy="333.23" r="4" fill="#4682B4" fill-opacity="0.78" /><circle cx="208.36" cy="448.46" r="4" fill="#4682B4" fill-opacity="0.78" /><circle cx="277.27" cy="366.31" r="4" fill="#4682B4" fill-opacity="0.78" /><circle cx="254.85" cy="357.27" r="4" fill="#4682B4" fill-opacity="0.78" /><circle cx="731.85" cy="148.14" r="4" fill="#4682B4" fill-opacity="0.78" /><circle cx="489.25" cy="140.41" r="4" fill="#4682B4" fill-opacity="0.78" /><circle cx="712.10" cy="101.66" r="4" fill="#4682B4" fill-opacity="0.78" />
</svg>
